# 
# Generated by Sweet Home 3D - dim. oct. 10 18:46:50 CEST 2021
# http://www.sweethome3d.com/
# 
mtllib mur_incline.mtl
g wall_1_1
usemtl wall_1_1
v 203.375 0.0 86.312584
v 201.5 0.0 89.56018
v 544.44604 0.0 287.56018
v 546.32104 0.0 284.3126
vn 0.0 -1.0 0.0
f 4//1 3//1 2//1
f 4//1 2//1 1//1
g wall_1_2
usemtl wall_1_1
v 199.625 0.0 92.80778
v 542.57104 0.0 290.80777
f 3//1 6//1 5//1
f 3//1 5//1 2//1
g wall_1_3
usemtl wall_1_1
v 201.5 250.0 89.56018
v 203.375 250.0 86.312584
v 546.32104 250.0 284.3126
v 544.44604 250.0 287.56018
vn -0.8660255 0.0 -0.49999985
vn 0.86602503 0.0 0.5000007
vn 0.50000006 0.0 -0.8660254
vn 0.0 0.0 0.0
f 1//2 2//2 7//2 8//2
f 3//3 4//3 9//3 10//3
f 4//4 1//4 8//4 9//4
g wall_1_4
usemtl wall_1_1
v 199.625 250.0 92.80778
v 542.57104 250.0 290.80777
vn -0.50000006 0.0 0.8660254
f 2//2 5//2 11//2 7//2
f 5//6 6//6 12//6 11//6
f 6//3 3//3 10//3 12//3
g wall_1_5
usemtl wall_1_1
vn 0.0 1.0 0.0
f 8//7 7//7 10//7
f 8//7 10//7 9//7
g wall_1_6
usemtl wall_1_1
f 7//7 11//7 12//7
f 7//7 12//7 10//7
