o 
v -0.24250000715255737 0 0
v -0.22349999845027924 0 0
v -0.24250000715255737 0.09000000357627869 0
v -0.22349999845027924 0.09000000357627869 0
v -0.24250000715255737 0 0.9700000286102295
v -0.22349999845027924 0 0.9700000286102295
v -0.24250000715255737 0.09000000357627869 0.9700000286102295
v -0.22349999845027924 0.09000000357627869 0.9700000286102295
v 0.22349999845027924 0 0
v 0.24250000715255737 0 0
v 0.22349999845027924 0.09000000357627869 0
v 0.24250000715255737 0.09000000357627869 0
v 0.22349999845027924 0 0.9700000286102295
v 0.24250000715255737 0 0.9700000286102295
v 0.22349999845027924 0.09000000357627869 0.9700000286102295
v 0.24250000715255737 0.09000000357627869 0.9700000286102295
v -0.24250000715255737 -0.01899999938905239 0.25999999046325684
v 0.24250000715255737 -0.01899999938905239 0.25999999046325684
v -0.24250000715255737 0 0.25999999046325684
v 0.24250000715255737 0 0.25999999046325684
v -0.24250000715255737 -0.01899999938905239 0.3499999940395355
v 0.24250000715255737 -0.01899999938905239 0.3499999940395355
v -0.24250000715255737 0 0.3499999940395355
v 0.24250000715255737 0 0.3499999940395355
v -0.24250000715255737 0.09000000357627869 0.05000000074505806
v 0.24250000715255737 0.09000000357627869 0.05000000074505806
v -0.24250000715255737 0.10899999737739563 0.05000000074505806
v 0.24250000715255737 0.10899999737739563 0.05000000074505806
v -0.24250000715255737 0.09000000357627869 0.14000000059604645
v 0.24250000715255737 0.09000000357627869 0.14000000059604645
v -0.24250000715255737 0.10899999737739563 0.14000000059604645
v 0.24250000715255737 0.10899999737739563 0.14000000059604645
v 0.24250000715255737 10 10
v 0.24250000715255737 -0.03815964609384537 0.17206305265426636
v 0.24250000715255737 0.12815964221954346 0.22793695330619812
v 0.22349999845027924 -0.03815964609384537 0.17206305265426636
v 0.22349999845027924 0.12815964221954346 0.22793695330619812
v 0.22349999845027924 -0.01899999938905239 0.25999999046325684
v -0.22349999845027924 -0.47963857650756836 0.2682521939277649
v -0.2045000046491623 -0.47963857650756836 0.2682521939277649
v -0.22349999845027924 0.4681263864040375 0.061753783375024796
v -0.2045000046491623 0.4681263864040375 0.061753783375024796
v -0.22349999845027924 -0.46047893166542053 0.35618913173675537
v -0.2045000046491623 -0.46047893166542053 0.35618913173675537
v -0.22349999845027924 0.4872860312461853 0.14969073235988617
v -0.2045000046491623 0.4872860312461853 0.14969073235988617
v 0.2045000046491623 -0.47963857650756836 0.2682521939277649
v 0.22349999845027924 -0.47963857650756836 0.2682521939277649
v 0.2045000046491623 0.4681263864040375 0.061753783375024796
v 0.22349999845027924 0.4681263864040375 0.061753783375024796
v 0.2045000046491623 -0.46047893166542053 0.35618913173675537
v 0.22349999845027924 -0.46047893166542053 0.35618913173675537
v 0.2045000046491623 0.4872860312461853 0.14969073235988617
v 0.22349999845027924 0.4872860312461853 0.14969073235988617
v 0.22349999845027924 0.09000000357627869 0.14413970708847046
v 0.22349999845027924 0.3302793502807617 -0.18471857905387878
v 0.22349999845027924 0.09000000357627869 0.23625114560127258
vn -0.9782546195836921 -0.20652052830279918 -0.019161697542195204
vn 0.9206501208375442 -0.38871911011355914 -0.036066721979383765
vn -0.9942865112812087 0.1049525114388501 -0.019475724040993125
vn 0.9783893436507035 0.20654896342754286 -0.009582167695938875
vn -0.9783893436507035 -0.20654896342754286 0.009582167695938875
vn 0.9942865112812087 -0.1049525114388501 0.019475724040993125
vn -0.9206501208375442 0.38871911011355914 0.036066721979383765
vn 0.9782546195836921 0.20652052830279918 0.019161697542195204
vn -0.9782546195836921 -0.20652052830279918 -0.019161697542195204
vn 0.9206501208375442 -0.38871911011355914 -0.036066721979383765
vn -0.9942865112812087 0.1049525114388501 -0.019475724040993125
vn 0.9783893436507035 0.20654896342754286 -0.009582167695938875
vn -0.9783893436507035 -0.20654896342754286 0.009582167695938875
vn 0.9942865112812087 -0.1049525114388501 0.019475724040993125
vn -0.9206501208375442 0.38871911011355914 0.036066721979383765
vn 0.9782546195836921 0.20652052830279918 0.019161697542195204
vn -0.03830228676359773 -0.9777163089529699 -0.20640676838723004
vn 0.019161688645165553 -0.9782546408315999 -0.20652042848033997
vn -0.07199307389947754 0.918859046561177 -0.38796269132893324
vn 0.03892928689499204 0.993721294856939 -0.10489279655770355
vn -0.03892928689499204 -0.993721294856939 0.10489279655770355
vn 0.07199307389947754 -0.918859046561177 0.38796269132893324
vn -0.019161688645165553 0.9782546408315999 0.20652042848033997
vn 0.03830228676359773 0.9777163089529699 0.20640676838723004
vn -0.03830227235552298 -0.9777163215396486 -0.2064067114397732
vn 0.019161682177864483 -0.9782546555423078 -0.20652035939808763
vn -0.07199305416077693 0.9188590799118417 -0.38796261600335574
vn 0.03892927213810835 0.9937212985398094 -0.10489276714412879
vn -0.03892927213810835 -0.9937212985398094 0.10489276714412879
vn 0.07199305416077693 -0.9188590799118417 0.38796261600335574
vn -0.019161682177864483 0.9782546555423078 0.20652035939808763
vn 0.03830227235552298 0.9777163215396486 0.2064067114397732
vn 0 0 0
vn 0 0 0
vn 0 0 0
vn 0 0 0
vn 0 0 0
vn 0 0 0
vn -0.9782546532073186 -0.06268752221110632 -0.19770712692581696
vn 0.9206502007522676 -0.11799235109618408 -0.37213037088848877
vn -0.9783893777047867 -0.03460862098550241 -0.20385403834097093
vn 0.9942865183072377 -0.0033135215588861117 -0.10669273680691493
vn -0.9942865190914822 0.0033135234241447706 0.10669272944048848
vn 0.9783893716346133 0.034608624496072084 0.20385406687853133
vn -0.920650211771954 0.11799234505790808 0.3721303455403654
vn 0.9782546560893209 0.06268752239578787 0.1977071126071142
vn -0.9782546532073186 -0.06268752221110632 -0.19770712692581696
vn 0.9206502007522676 -0.11799235109618408 -0.37213037088848877
vn -0.9783893777047867 -0.03460862098550241 -0.20385403834097093
vn 0.9942865183072377 -0.0033135215588861117 -0.10669273680691493
vn -0.9942865190914822 0.0033135234241447706 0.10669272944048848
vn 0.9783893716346133 0.034608624496072084 0.20385406687853133
vn -0.920650211771954 0.11799234505790808 0.3721303455403654
vn 0.9782546560893209 0.06268752239578787 0.1977071126071142
vn 0 0 0
vn 0 0 0
vn 0 0 0
f 1//1 3//3 2//2
f 4//4 2//2 3//3
f 1//1 2//2 5//5
f 6//6 5//5 2//2
f 1//1 5//5 3//3
f 7//7 3//3 5//5
f 8//8 7//7 6//6
f 5//5 6//6 7//7
f 8//8 4//4 7//7
f 3//3 7//7 4//4
f 8//8 6//6 4//4
f 2//2 4//4 6//6
f 9//9 11//11 10//10
f 12//12 10//10 11//11
f 9//9 10//10 13//13
f 14//14 13//13 10//10
f 9//9 13//13 11//11
f 15//15 11//11 13//13
f 16//16 15//15 14//14
f 13//13 14//14 15//15
f 16//16 12//12 15//15
f 11//11 15//15 12//12
f 16//16 14//14 12//12
f 10//10 12//12 14//14
f 17//17 19//19 18//18
f 20//20 18//18 19//19
f 17//17 18//18 21//21
f 22//22 21//21 18//18
f 17//17 21//21 19//19
f 23//23 19//19 21//21
f 24//24 23//23 22//22
f 21//21 22//22 23//23
f 24//24 20//20 23//23
f 19//19 23//23 20//20
f 24//24 22//22 20//20
f 18//18 20//20 22//22
f 25//25 27//27 26//26
f 28//28 26//26 27//27
f 25//25 26//26 29//29
f 30//30 29//29 26//26
f 25//25 29//29 27//27
f 31//31 27//27 29//29
f 32//32 31//31 30//30
f 29//29 30//30 31//31
f 32//32 28//28 31//31
f 27//27 31//31 28//28
f 32//32 30//30 28//28
f 26//26 28//28 30//30
f 39//39 41//41 40//40
f 42//42 40//40 41//41
f 39//39 40//40 43//43
f 44//44 43//43 40//40
f 39//39 43//43 41//41
f 45//45 41//41 43//43
f 46//46 45//45 44//44
f 43//43 44//44 45//45
f 46//46 42//42 45//45
f 41//41 45//45 42//42
f 46//46 44//44 42//42
f 40//40 42//42 44//44
f 47//47 49//49 48//48
f 50//50 48//48 49//49
f 47//47 48//48 51//51
f 52//52 51//51 48//48
f 47//47 51//51 49//49
f 53//53 49//49 51//51
f 54//54 53//53 52//52
f 51//51 52//52 53//53
f 54//54 50//50 53//53
f 49//49 53//53 50//50
f 54//54 52//52 50//50
f 48//48 50//50 52//52
